<?xml version="1.0" encoding="iso-8859-1"?>
<!-- Generator: Adobe Illustrator 19.0.0, SVG Export Plug-In . SVG Version: 6.00 Build 0)  -->
<svg version="1.1" id="Layer_1" xmlns="http://www.w3.org/2000/svg" xmlns:xlink="http://www.w3.org/1999/xlink" x="0px" y="0px"
	 viewBox="0 0 512.001 512.001" style="enable-background:new 0 0 512.001 512.001;" xml:space="preserve">
<g>
	<g>
		<path d="M509.124,145.674c-6.425-16.848-22.227-27.734-40.258-27.734H43.134c-18.031,0-33.834,10.886-40.258,27.734
			c-6.424,16.848-1.881,35.492,11.573,47.497l212.866,189.945c8.178,7.297,18.43,10.944,28.686,10.944
			c10.252,0,20.509-3.648,28.686-10.945l212.866-189.944C511.006,181.167,515.548,162.523,509.124,145.674z M483.97,177.951
			L271.105,367.895c-8.611,7.685-21.597,7.684-30.207,0.001L28.031,177.951c-8.599-7.673-8.785-17.95-6.093-25.01
			c2.692-7.058,9.674-14.602,21.196-14.602h425.733c11.523,0,18.504,7.543,21.196,14.603
			C492.754,160.001,492.569,170.279,483.97,177.951z"/>
	</g>
</g>
<g>
	<g>
		<path d="M393.15,227.953c-3.75-4.2-10.197-4.57-14.402-0.82l-5.234,4.669c-4.202,3.752-4.571,10.199-0.82,14.402
			c2.016,2.258,4.809,3.409,7.615,3.409c2.415,0,4.842-0.853,6.787-2.589l5.234-4.669
			C396.533,238.603,396.901,232.156,393.15,227.953z"/>
	</g>
</g>
<g>
	<g>
		<path d="M361.62,256.087c-3.748-4.201-10.196-4.572-14.401-0.819l-96.306,85.937c-4.203,3.751-4.571,10.198-0.82,14.401
			c2.014,2.258,4.808,3.409,7.614,3.409c2.416,0,4.842-0.854,6.787-2.59l96.307-85.937
			C365.003,266.738,365.371,260.29,361.62,256.087z"/>
	</g>
</g>
<g>
</g>
<g>
</g>
<g>
</g>
<g>
</g>
<g>
</g>
<g>
</g>
<g>
</g>
<g>
</g>
<g>
</g>
<g>
</g>
<g>
</g>
<g>
</g>
<g>
</g>
<g>
</g>
<g>
</g>
</svg>
